<svg id="Layer_1" xmlns="http://www.w3.org/2000/svg" width="100" height="100" viewBox="206 206 100 100"><g id="_x23_231f20ff" fill="#15161B"><path d="M284.336 224.5a3761.782 3761.782 0 0 1 16.616 14.274c-5.446 4.896-11.108 9.576-16.64 14.387.013-3.219-.021-6.437.011-9.653-3.509.005-7.018-.021-10.524.011-1.687.003-3.272.846-4.408 2.061-10.074 10.486-20.169 20.954-30.24 31.443-1.119 1.162-2.68 1.921-4.311 1.906-6.406.041-12.815-.031-19.22.042-2.38-.07-4.423-2.227-4.421-4.597-.119-2.568 2.146-4.783 4.668-4.859 5.088-.048 10.182.028 15.27-.034 1.856-.012 3.49-1.094 4.661-2.46 9.921-10.331 19.854-20.653 29.78-30.98 1.115-1.217 2.718-1.967 4.373-2.004 4.79-.021 9.583.019 14.372-.019-.01-3.173-.035-6.346.013-9.518z"/><path d="M214.773 234.014c6.925-.057 13.875.005 20.812-.015 1.788-.08 3.608.591 4.824 1.926 2.883 2.966 5.734 5.967 8.601 8.95 1.174 1.2 1.819 2.947 1.411 4.613-.445 2.039-2.397 3.66-4.499 3.64-1.427.064-2.743-.663-3.793-1.566-1.965-2.094-3.849-4.27-5.845-6.336-1.143-1.164-2.787-1.738-4.401-1.715-5.169-.022-10.338.015-15.508-.017-2.058-.063-4.251-1.035-5.011-3.077-1.17-2.6.618-5.902 3.409-6.403zM257.025 260.551c1.786-1.427 4.586-1.221 6.161.429 2.159 2.213 4.271 4.471 6.433 6.682a6 6 0 0 0 4.371 1.843c3.446-.013 6.893.016 10.341-.017-.035-3.159-.014-6.319-.008-9.479 5.591 4.735 11.138 9.521 16.677 14.316a2664.326 2664.326 0 0 1-16.662 14.297c-.07-3.232.008-6.466-.035-9.698-4.796-.044-9.592-.004-14.389-.021-1.652-.015-3.244-.803-4.351-2.015-3.09-3.189-6.229-6.329-9.288-9.546-1.77-1.934-1.377-5.279.75-6.791z"/></g></svg>