<?xml version="1.0" encoding="utf-8"?>
<!-- Generator: Adobe Illustrator 15.0.0, SVG Export Plug-In . SVG Version: 6.00 Build 0)  -->
<!DOCTYPE svg PUBLIC "-//W3C//DTD SVG 1.1//EN" "http://www.w3.org/Graphics/SVG/1.1/DTD/svg11.dtd">
<svg version="1.1" id="Layer_1" xmlns="http://www.w3.org/2000/svg" xmlns:xlink="http://www.w3.org/1999/xlink" x="0px" y="0px"
	 width="100px" height="100px" viewBox="206 206 100 100" enable-background="new 206 206 100 100" xml:space="preserve">
<g id="_x23_231f20ff">
	<path fill="#15161B" d="M284.336,224.5c5.548,4.746,11.096,9.496,16.616,14.274c-5.446,4.896-11.108,9.576-16.64,14.387
		c0.013-3.219-0.021-6.437,0.011-9.653c-3.509,0.005-7.018-0.021-10.524,0.011c-1.687,0.003-3.272,0.846-4.408,2.061
		c-10.074,10.486-20.169,20.954-30.24,31.443c-1.119,1.162-2.68,1.921-4.311,1.906c-6.406,0.041-12.815-0.031-19.22,0.042
		c-2.38-0.07-4.423-2.227-4.421-4.597c-0.119-2.568,2.146-4.783,4.668-4.859c5.088-0.048,10.182,0.028,15.27-0.034
		c1.856-0.012,3.49-1.094,4.661-2.46c9.921-10.331,19.854-20.653,29.78-30.98c1.115-1.217,2.718-1.967,4.373-2.004
		c4.79-0.021,9.583,0.019,14.372-0.019C284.313,230.845,284.288,227.672,284.336,224.5z"/>
	<path fill="#15161B" d="M214.773,234.014c6.925-0.057,13.875,0.005,20.812-0.015c1.788-0.08,3.608,0.591,4.824,1.926
		c2.883,2.966,5.734,5.967,8.601,8.95c1.174,1.2,1.819,2.947,1.411,4.613c-0.445,2.039-2.397,3.66-4.499,3.64
		c-1.427,0.064-2.743-0.663-3.793-1.566c-1.965-2.094-3.849-4.27-5.845-6.336c-1.143-1.164-2.787-1.738-4.401-1.715
		c-5.169-0.022-10.338,0.015-15.508-0.017c-2.058-0.063-4.251-1.035-5.011-3.077C210.194,237.817,211.982,234.515,214.773,234.014z"
		/>
	<path fill="#15161B" d="M257.025,260.551c1.786-1.427,4.586-1.221,6.161,0.429c2.159,2.213,4.271,4.471,6.433,6.682
		c1.123,1.184,2.74,1.859,4.371,1.843c3.446-0.013,6.893,0.016,10.341-0.017c-0.035-3.159-0.014-6.319-0.008-9.479
		c5.591,4.735,11.138,9.521,16.677,14.316c-5.531,4.793-11.092,9.55-16.662,14.297c-0.07-3.232,0.008-6.466-0.035-9.698
		c-4.796-0.044-9.592-0.004-14.389-0.021c-1.652-0.015-3.244-0.803-4.351-2.015c-3.09-3.189-6.229-6.329-9.288-9.546
		C254.505,265.408,254.898,262.063,257.025,260.551z"/>
</g>
</svg>
